<svg xmlns="http://www.w3.org/2000/svg" version="1.2" viewBox="0 0 240.168 168.459"><defs><clipPath id="a"><path d="M42.898.012H47.2v.097h-4.3ZM41.5.109H48v.102h-6.5Zm-.5.102h7.7v.098H41Zm-.602.098h8.903V.41h-8.903Zm-.597.101h10.097v.102H39.801Zm-.602.102h11.2v.097h-11.2zm-.597.097h12.097v.102H38.602ZM38.3.711H51v.098H38.3Zm-.403.098h13.5V.91h-13.5zM37.5.91h14.2v.102H37.5Zm-.3.102H52v.097H37.2Zm-.4.097h15.598v.102H36.801Zm-.402.102H52.7v.098H36.4Zm-.296.098H53v.101H36.102Zm-.403.101h17.5v.102H35.7Zm-.3.102h18v.097h-18zm-.297.097h18.5v.102h-18.5zm-.204.102h18.903v.098H34.898Zm-.296.098h19.5v.101h-19.5zm-.301.101h20v.102h-20zM34 2.012h20.5v.097H34Zm-.2.097h20.9v.102H33.8Zm-.3.102h21.398v.098H33.5Zm-.3.098h22v.101h-22zm-.2.101h22.398v.102H33Zm-.3.102h22.8v.097H32.7Zm-.302.097H55.7v.102H32.4Zm-.199.102h23.7v.098h-23.7zM32 2.809h24v.101H32Zm-.2.101h24.4v.102H31.8Zm-.198.102h24.796v.097H31.602Zm-.204.097H56.5v.102H31.398Zm-.199.102h25.5v.098H31.2Zm-.3.098H56.8v.101H30.898Zm-.2.101H57v.102H30.7Zm-.199.102h26.7v.097H30.5Zm-.2.097h27v.102h-27zm-.198.102h27.296v.098H30.102Zm-.204.098h27.704v.101H29.898Zm-.199.101h28v.102h-28zm-.199.102h28.3v.097H29.5Zm-.2.097H58v.102H29.3Zm-.198.102h29v.098h-29zm-.204.098H58.2v.101H28.9Zm-.199.101h29.602v.102H28.699Zm-.097.102h29.796v.097H28.602Zm-.204.097h30.204v.102H28.398Zm-.199.102h30.5v.098H28.2ZM28 4.809h30.8v.101H28Zm-.102.101h31v.102h-31zm-.199.102H59v.097H27.7Zm-.199.097h31.602v.102H27.5Zm-.2.102h31.9v.098H27.3Zm-.1.098h32.1v.101H27.2Zm-.2.101h32.398v.102H27Zm-.2.102h32.7v.097H26.8Zm-.198.097h33v.102h-33zm-.102.102h33.3v.098H26.5Zm-.2.098h33.5v.101H26.3Zm-.1.101h33.698v.102H26.2Zm-.2.102h34v.097H26Zm-.102.097h34.204v.102H25.898Zm-.199.102h34.5v.098H25.7Zm-.097.098h13.597v.101H25.602Zm13.796 0h20.903v.101H39.398Zm-14 .101H38v.102H25.398Zm16.704 0h18.296v.102H42.102ZM25.3 6.512h11.5v.097H25.3Zm17.699 0h17.398v.097H43Zm-17.898.097h11.097v.102H25.102Zm18.796 0H60.5v.102H43.898ZM25 6.711h10.602v.098H25Zm19.3 0h16.302v.098H44.3Zm-19.5.098H35v.101H24.8Zm20 0h15.9v.101H44.8Zm-20.1.101h9.8v.102h-9.8zm20.5 0h15.6v.102H45.2Zm-20.7.102H34v.097h-9.5zm21.102 0h15.296v.097H45.602Zm-21.204.097h9.204v.102h-9.204zm21.704 0H61v.102H46.102Zm-21.903.102h9v.098h-9zm22.2 0H61v.098H46.398Zm-22.297.098h8.796v.101h-8.796zm22.597 0h14.403v.101H46.699Zm-22.8.101H32.5v.102h-8.602zm23 0h14.3v.102H46.9ZM23.8 7.512h8.3v.097h-8.3zm23.398 0H61.3v.097H47.199Zm-23.597.097h8.097v.102h-8.097zm23.898 0h13.898v.102H47.5Zm-24 .102h7.898v.098H23.5Zm24.3 0h13.7v.098H47.8Zm-24.5.098h7.9v.101h-7.9zm24.802 0h13.5v.101h-13.5zm-24.903.101h7.7v.102h-7.7zm25.102 0h13.3v.102H48.3Zm-25.2.102h7.5v.097h-7.5zm25.5 0h13.1v.097H48.602ZM23 8.109h7.3v.102H23Zm25.8 0h13v.102h-13zm-26 .102H30v.098h-7.2zm26.2 0h12.8v.098H49Zm-26.3.098h7v.101h-7zm26.5 0h12.698v.101H49.2Zm-26.598.101h6.796v.102h-6.796zm26.796 0H62v.102H49.398ZM22.5 8.512h6.7v.097h-6.7zm27.102 0H62v.097H49.602ZM22.3 8.609h6.597v.102H22.3Zm27.5 0h12.3v.102H49.8Zm-27.602.102h6.5v.098h-6.5zM50 8.71h12.102v.098H50Zm-27.898.098H28.5v.101h-6.398zm28.097 0h12v.101h-12zm-28.3.101H28.3v.102h-6.403zm28.5 0H62.3v.102H50.398ZM21.8 9.012H28v.097h-6.2zm28.699 0h11.8v.097H50.5Zm-28.8.097h6.1v.102h-6.1zm29 0h11.698v.102H50.7Zm-29.098.102h6v.098h-6zm29.199 0h11.7v.098H50.8Zm-29.403.098H27.3v.101h-5.903zm29.602 0h11.5v.101H51Zm-29.7.101h5.802v.102H21.3Zm29.9 0h11.402v.102H51.199Zm-30 .102h5.698v.097H21.2Zm30.1 0h11.4v.097H51.3ZM21 9.609h5.7v.102H21Zm30.5 0h11.2v.102H51.5Zm-30.602.102H26.5v.098h-5.602zm30.704 0H62.8v.098H51.6ZM20.8 9.809h5.5v.101h-5.5zm31 0h11v.101h-11zm-31.102.101h5.403v.102h-5.403zm31.2 0h11v.102h-11zm-31.399.102h5.398v.097H20.5Zm31.602 0H63v.097H52.102Zm-31.704.097H25.7v.102h-5.3zm31.801 0H63v.102H52.2Zm-31.898.102h5.2v.098h-5.2zm32 0h10.8v.098H52.3Zm-32.102.098H25.3v.101h-5.102zm32.301 0h10.602v.101H52.5Zm-32.398.101h5v.102h-5zm32.5 0h10.597v.102H52.602ZM20 10.512h5v.097h-5zm32.7 0h10.5v.097H52.7Zm-32.802.097h4.903v.102h-4.903zm33 0h10.403v.102H52.898Zm-33.097.102h4.8v.098h-4.8zm33.199 0h10.3v.098H53Zm-33.3.098h4.698v.101H19.7Zm33.402 0h10.296v.101H53.102ZM19.5 10.91h4.7v.102h-4.7zm33.7 0h10.198v.102H53.2Zm-33.802.102H24v.097h-4.602zm33.903 0H63.5v.097H53.3Zm-34 .097h4.597v.102h-4.597zm34.097 0H63.5v.102H53.398Zm-34.199.102h4.5v.098h-4.5zm34.301 0h10.102v.098H53.5Zm-34.398.098H23.5v.101h-4.398zm34.5 0h10v.101h-10zM19 11.41h4.398v.102H19Zm34.8 0h9.9v.102h-9.9Zm-34.902.102H23.2v.097h-4.3zm35 0H63.7v.097h-9.8zm-35.097.097h4.3v.102h-4.3zm35.199 0h9.8v.102H54Zm-35.3.102h4.198v.098H18.7Zm35.402 0H63.8v.098h-9.7Zm-35.602.098h4.2v.101h-4.2zm35.7 0h9.6v.101h-9.6Zm-35.802.101h4.204v.102h-4.204zm35.903 0h9.597v.102h-9.597zm-36 .102h4.097v.097h-4.097zm36.097 0h9.5v.097h-9.5zm-36.199.097h4.102v.102h-4.102zm36.301 0H64v.102h-9.5zm-36.398.102h4v.098h-4zm36.5 0H64v.098h-9.398ZM18 12.309h3.898v.101H18Zm-.102.101h3.903v.102h-3.903Zm36.802-.1h9.403v.203H54.7Zm-36.898.203h3.8v.097h-3.8zm37 0H64.2v.097h-9.398ZM17.7 12.61h3.8v.102h-3.8zm37.2 0h9.3v.102h-9.3Zm-37.297.102H21.3v.098h-3.7zm37.398 0h9.3v.098H55Zm-37.5.098h3.7v.101h-3.7zm37.602 0H64.3v.101h-9.2zm-37.704.101h3.704v.102h-3.704zm37.801 0h9.102v.102H55.2Zm-37.898.102h3.597v.097h-3.597Zm-.102.097h3.602v.102H17.2Zm38.102-.097h9.097v.199h-9.097zm-38.2.199H20.7v.098h-3.597zm38.297 0h9v.098h-9zM17 13.309h3.5v.101H17Zm38.5 0h9v.101h-9zm-38.602.101h3.5v.102h-3.5zm38.704 0H64.5v.102h-8.898zm-38.801.102h3.398v.097h-3.398zm38.898 0H64.5v.097h-8.8zm-39 .097h3.403v.102h-3.403zm39.102 0h8.8v.102h-8.8zm-39.2.102H20v.098h-3.398zm39.297 0h8.704v.098h-8.704Zm-39.398.098h3.3v.101h-3.3zm39.5 0h8.602v.101H56Zm-39.602.101H19.7v.102h-3.3zm39.602 0h8.7v.102H56Zm-39.7.102h3.2v.097h-3.2zm39.802 0h8.597v.097h-8.597zm-39.903.097h3.2v.102h-3.2zm40 0h8.5v.102h-8.5zm-40.097.102H19.3v.098h-3.2zm40.097 0h8.602v.098h-8.602ZM16 14.309h3.102v.101H16Zm40.3 0h8.5v.101h-8.5Zm-40.402.101H19v.102h-3.102zm40.5 0h8.403v.102h-8.403zm-40.597.102h3.097v.097h-3.097zm40.597 0h8.5v.097h-8.5zm.102.097h8.398v.102H56.5Zm-40.8 0h3.1v.102h-3.1zm0 .102h3v.098h-3zm40.902 0h8.296v.098h-8.296zm-41 .098H18.5v.101h-2.898zm41 0H65v.101h-8.398ZM15.5 14.91h2.898v.102H15.5Zm41.2 0H65v.102h-8.3zm-41.302.102h2.903v.097h-2.903zm41.403 0H65v.097h-8.2zm-41.5.097h2.898v.102h-2.898zm41.5 0h8.3v.102h-8.3zm-41.602.102h2.903v.098h-2.903zm41.7 0h8.203v.098h-8.204zm-41.797.098h2.796v.101h-2.796zm41.898 0h8.102v.101H57Zm-42 .101h2.8v.102H15Zm42 0h8.2v.102H57Zm-42.102.102H17.7v.097h-2.8zm42.204 0h8.097v.097h-8.097zm-42.301.097h2.8v.102h-2.8zm-.102.102h2.7v.098h-2.7zm42.5-.102h8v.2h-8zm.102.2h8v.101h-8zm-42.7 0h2.7v.101h-2.7zm0 .101H17.2v.102h-2.597Zm-.101.102h2.602v.097H14.5Zm42.898-.102h7.903v.2h-7.903zm-43 .2H17v.1h-2.602zm-.097.1h2.5v.099h-2.5zm43.199-.1h7.8v.199h-7.8zm-43.3.199h2.5v.101h-2.5zm-.098.101h2.5v.102h-2.5zm43.5-.101h7.796v.203h-7.796ZM14 16.512h2.5v.097H14Zm0 .097h2.398v.102H14Zm43.7-.097h7.698v.199H57.7Zm-43.802.199h2.403v.098h-2.403zm43.903 0h7.597v.098h-7.597zm-44 .098h2.398v.101h-2.398zm44 0H65.5v.101h-7.7Zm-44.102.101h2.403v.102h-2.403zm-.097.102H16v.097h-2.398Zm44.296-.102H65.5v.2h-7.602Zm-44.398.2h2.398v.1H13.5Zm44.5 0h7.5v.199H58Zm-44.602.1h2.403v.099h-2.403zm0 .099H15.7v.101h-2.3Zm-.097.101H15.5v.102h-2.2zm44.8-.101h7.5v.203h-7.5zm-44.902.203h2.2v.097h-2.2zm-.097.097H15.3v.102h-2.2zm45.097-.097h7.403v.199h-7.403ZM13 17.71h2.2v.098H13Zm45.3 0h7.302v.098H58.3Zm0 .098h7.4v.101h-7.4zm-45.402 0h2.204v.101h-2.204zm0 .101H15v.102h-2.102zm-.097.102h2.097v.097h-2.097Zm45.597-.102H65.7v.2h-7.3zm-45.699.2h2.102v.1h-2.102zm45.801 0h7.2v.199h-7.2zm-45.898.1h2.097v.099h-2.097zm0 .099h1.796v.101h-1.796Zm-.102.101h.5v.102h-.5Zm46.102-.101H65.8v.3h-7.2zm.097.3h7.102v.2h-7.102zm.102.2h7v.101h-7zm0 .101h7.097v.2h-7.097zm.097.2h7v.3h-7zm.102.3h6.898v.3H59Zm.102.3h6.796v.302h-6.796zm.097.302H66v.297h-6.8zm.102.297H66v.3h-6.7zm.097.3H66v.301h-6.602Zm.102.301H66v.102h-6.5zm0 .102h6.602v.199H59.5Zm.102.199h6.5v.398h-6.5zm.097.398h6.403v.5h-6.403zm.102.5h6.3v.403h-6.3zm.097.403h6.204v.5h-6.204zm.102.5h6.102v.398H60Zm.102.398h6v.5h-6zm.097.5h5.903v.8h-5.903zm.102.8h5.8v.802h-5.8zm.097.802h5.704v.297h-5.704zm0 .297H66v.601h-5.602Zm.102.601H66v.5h-5.5zm0 .5h5.398v1.2H60.5Zm0 1.2h5.3v.699h-5.3zm0 .699h5.2v.5h-5.2zm0 .5h5.102v.601H60.5Zm0 .601h5v.602h-5zm0 .602h4.898v.5H60.5Zm-.102.5h5v.097h-5zm0 .097h4.903v.602h-4.903zm0 .602H65.2v.398h-4.8zm0 .398h4.704v.301h-4.704zm-.097.301H65v.399h-4.7zm0 .399h4.597v.402h-4.597zm-.102.402h4.602v.398h-4.602zm0 .398h4.5v.2h-4.5zm-.097.2h4.597v.203h-4.597zm0 .203h4.5v.398h-4.5zM60 34.41h4.5v.399H60Zm0 .399h4.398v.3H60Zm-.102.3h4.5v.102h-4.5zm0 .102h4.403v.3h-4.403zm0 .3H64.2v.2h-4.3zm-.097.2h4.398v.098h-4.398zm0 .098h4.3v.203h-4.3zm0 .203H64v.097h-4.2zm-.102.097H64v.2h-4.3zm0 .2h4.2v.3h-4.2zm-.097.3H63.8v.301h-4.2zm0 .301h4.097v.102h-4.097Zm-.102.102h4.2v.199h-4.2zm0 .199h4.102v.2H59.5Zm-.102.2h4.204v.1h-4.204zm0 .1H63.5v.298h-4.102zm-.097.298h4.097v.3h-4.097zm0 .3h4v.102h-4zm-.102.102h4.102v.2h-4.102zm0 .2h4v.198h-4zm-.097.198h4.097v.102h-4.097zm0 .102h4v.2h-4zm0 .2H63v.1h-3.898Zm-.102.1h4v.2h-4zm0 .2h3.898v.098H59Zm-.102.098h4v.101h-4zm0 .101h3.903v.2h-3.903zm-.097.2h3.898v.3h-3.898zm-.102.3h3.903v.2h-3.903zm0 .2H62.5v.1h-3.8zm-.097.1H62.5v.099h-3.898zm0 .099h3.796v.3h-3.796zm-.102.3h3.8v.2h-3.8zm0 .2h3.7v.101h-3.7Zm-.102.101H62.2v.2h-3.8zm0 .2h3.704v.1h-3.704zm-.097.1h3.8v.099h-3.8zm0 .099H62v.203h-3.7zm-.102.203h3.7v.297h-3.7zm-.097.297H61.8v.203h-3.7zm0 .203h3.597v.097h-3.597Zm-.102.097h3.7v.102H58Zm0 .102h3.602v.098H58Zm-.102.098h3.704v.101h-3.704zm0 .101H61.5v.2h-3.602zm-.097.2h3.597v.199h-3.597zm-.102.199h3.602v.203h-3.602zm0 .203h3.5v.097h-3.5zm-.097.097h3.597v.102h-3.597zm0 .102h3.5v.098h-3.5zm-.102.098h3.602v.101H57.5Zm0 .101H61v.102h-3.5zm-.102.102H61v.097h-3.602zm0 .097h3.5v.2h-3.5zm-.097.2h3.5v.203h-3.5zm-.102.203h3.5v.199h-3.5zm0 .199h3.403v.098h-3.403zm-.097.098h3.5v.101h-3.5zm0 .101H60.5v.102h-3.398Zm-.102.102h3.5v.097H57Zm0 .097h3.398v.2H57Zm-.102.2h3.403v.101h-3.403zm0 .101H60.2v.102h-3.3zm-.097.102h3.398v.097h-3.398zm0 .097h3.3v.102h-3.3zm-.102.102h3.403v.098h-3.403zm0 .098H60v.203h-3.3zm-.097.203h3.296v.199h-3.296Zm-.102.199h3.3v.2h-3.3zm-.102.2H59.7v.1h-3.3zm-.097.1h3.3v.2h-3.3zm-.102.2H59.5v.2h-3.3zm-.097.2h3.296v.1h-3.296zm0 .1H59.3v.098h-3.2ZM56 46.61h3.3v.102H56Zm0 .102h3.2v.098H56Zm-.102.098H59.2v.101h-3.3zm0 .101h3.204v.102h-3.204zm-.097.102H59v.199h-3.2zm-.102.199h3.2v.2h-3.2zm-.097.2H58.8v.1h-3.2zm0 .1h3.097v.098h-3.097Zm-.102.098h3.2v.102h-3.2zm0 .102h3.102v.098H55.5Zm-.102.098h3.204v.101h-3.204zm0 .101H58.5v.102h-3.102zm-.097.102h3.097v.199h-3.097zm-.102.199h3.102v.2h-3.102zm-.097.2h3.097v.1h-3.097zm0 .1h3v.098h-3zM55 48.61h3.102v.102H55Zm0 .102h3v.098h-3Zm-.102.098H58v.101h-3.102zm-.097.101h3.097v.102h-3.097zm0 .102h3v.097h-3zm-.102.097h3v.2h-3zm-.097.2h3v.101h-3zm-.102.101h3v.2h-3zm-.102.2h3v.1h-3zm0 .1h2.903v.099h-2.903zm-.097.099h3v.101h-3zm-.102.101h3v.102h-3zm0 .102h2.903v.097h-2.903zm-.097.097h3v.102h-3zm0 .102H57v.098h-2.898ZM54 50.31h2.898v.203H54Zm-.102.203h2.903v.097h-2.903zm-.097.097h2.898v.2h-2.898zm-.102.2h2.903v.101h-2.903zm0 .101H56.5v.102h-2.8zm-.097.102h2.796v.097h-2.796Zm-.102.097h2.898v.102H53.5Zm0 .102h2.8v.098h-2.8Zm-.102.098H56.2v.203h-2.8zm-.097.203h2.8v.097h-2.8zm-.102.097H56v.102h-2.8zm0 .102h2.7v.098h-2.7zm-.097.098h2.796v.101h-2.796Zm-.102.1h2.8v.102H53Zm0 .102h2.7v.097H53Zm-.102.097h2.704v.102h-2.704zm-.097.102h2.8v.098h-2.8zm-.102.098H55.5v.101h-2.8zm0 .101h2.7v.102h-2.7zm-.097.102H55.3v.097h-2.7Zm-.102.097h2.8v.102h-2.8zm0 .102h2.7v.098h-2.7zm-.102.098h2.704v.101h-2.704Zm-.097.101H55v.2h-2.7zm-.102.2h2.7v.1h-2.7zm-.097.1H54.8v.099h-2.7zm0 .099h2.597v.101h-2.597ZM52 53.41h2.602v.102H52Zm-.102.102H54.5v.199h-2.602zm-.097.199h2.597v.098h-2.597zm-.102.098h2.602v.101h-2.602zm-.097.101h2.597v.102h-2.597zm0 .102h2.5v.097h-2.5zm-.102.097H54v.102h-2.5zm-.102.102H54v.098h-2.602zm-.097.098h2.597v.101h-2.597zm0 .101h2.5v.102h-2.5zm-.102.102h2.5v.097h-2.5zm-.097.097h2.5v.102h-2.5zm-.102.102h2.5v.2H51Zm-.102.2h2.5v.1h-2.5zm-.097.1h2.5v.098h-2.5zm-.102.098h2.5v.102h-2.5zm0 .102h2.403v.098h-2.403zm-.097.098H53v.101h-2.398Zm-.102.101H53v.102h-2.5zm-.102.102h2.5v.097h-2.5zm-.097.097h2.5v.102h-2.5zm0 .102h2.398v.098h-2.398zm-.102.098h2.403v.101h-2.403Zm-.097.101H52.5v.102h-2.398Zm-.102.102h2.398v.097H50Zm-.102.097h2.403v.102h-2.403zm-.097.102h2.398v.098h-2.398zm-.102.098h2.403v.101h-2.403zm0 .101H52v.102h-2.3zm-.097.102h2.296v.097h-2.296Zm-.102.097h2.3v.102h-2.3zm-.102.102H51.7v.098h-2.3zm-.097.098h2.3v.101h-2.3zm-.102.101H51.5v.2h-2.3zm-.097.2h2.296v.1h-2.296Zm-.102.1h2.3v.099H49Zm-.102.099H51.2v.101h-2.3zm-.097.101h2.3v.102h-2.3zm-.102.102H51v.097h-2.3zm-.097.097h2.296v.102h-2.296zm0 .102H50.8v.098h-2.2Zm-.102.098h2.2v.101h-2.2zm-.102.101h2.204v.102h-2.204zm-.097.102H50.5v.097h-2.2zm-.102.097h2.2v.102h-2.2zm-.097.102H50.3v.098h-2.2Zm-.102.098h2.2v.101H48Zm-.102.101h2.204v.102h-2.204zm-.097.102H50v.097h-2.2zm-.102.097h2.2v.102h-2.2zm-.097.102H49.8v.098h-2.2Zm-.102.098h2.2v.101h-2.2zm-.102.101h2.204v.102h-2.204zm-.097.102H49.5v.097h-2.2zm-.102.097h2.2v.102h-2.2zm-.097.102H49.3v.098h-2.2Zm-.102.098h2.2v.101H47Zm-.102.101h2.204v.102h-2.204zm-.097.102H49v.097h-2.2zm0 .097h2v.102h-2zm-.102.102h2v.098h-2zm-.097.098h2v.101h-2zm-.102.101h2v.102h-2zm-.102.102h2v.097h-2zm-.097.097h2v.102h-2zm-.102.102h2v.098h-2zm-.097.098h2v.101h-2zm-.204.101h2v.102h-2zm-.097.102h2v.097h-2zm-.102.097h2v.102h-2zm-.097.102h2v.098h-2zm-.102.098h2v.101h-2zm-.102.101h2v.102h-2zm-.097.102h2v.097h-2zm-.102.097h2v.102h-2zm-.097.102H47v.098h-1.898Zm-.102.098h1.898v.101H45Zm-.2.101h2v.102h-2zm-.1.102h2v.097h-2zm-.098.097h2v.102h-2zm-.102.102h2v.098h-2zm-.102.098h2v.101h-2zm-.097.101h1.898v.102h-1.898zm-.102.102h1.903v.097h-1.903zm-.097.097H46v.102h-1.898Zm-.102.102h1.8v.098H44Zm-.102.098H45.7v.101h-1.8zm-.199.101h1.903v.102h-1.903zm-.097.102h1.796v.097h-1.796Zm-.102.097h1.8v.102h-1.8zm-.102.102H45.2v.098h-1.8zm-.097.098H45v.101h-1.7zm-.2.101h1.797v.102h-1.796Zm-.101.102h1.8v.097H43Zm-.102.097h1.704v.102h-1.704zm-.199.102H44.5v.098h-1.8zm-.097.098h1.796v.101h-1.796Zm-.102.101h1.7v.102h-1.7zm-.102.102h1.704v.097h-1.704zm-.199.097H44v.102h-1.8zm-.097.102H43.8v.098h-1.7Zm-.102.098h1.7v.101H42Zm-.2.101h1.802v.102H41.8Zm-.1.102h1.698v.097H41.7Zm-.098.097H43.3v.102h-1.7Zm-.102.102h1.7v.098h-1.7zm-.2.098H43v.101h-1.7zm-.1.101h1.698v.102H41.2Zm-.098.102h1.597v.097h-1.597zm-.204.097h1.704v.102h-1.704zm-.097.102h1.597v.098h-1.597zm-.102.098h1.5v.101h-1.5zm-.199.101h1.602v.102H40.5Zm-.102.102h1.5v.097h-1.5zm-.199.097h1.602v.102h-1.602zm-.097.102h1.5v.098h-1.5zm-.204.098h1.5v.101h-1.5zm-.097.101h1.5v.102h-1.5zm-.2.102h1.5v.097h-1.5zm-.101.097H41v.102h-1.5zm-.2.102h1.5v.098h-1.5zm-.198.098h1.5v.101h-1.5zM39 65.91h1.5v.102H39Zm-.2.102h1.5v.097h-1.5zm-.1.097h1.5v.102h-1.5zm-.2.102H40v.098h-1.5zm-.102.098h1.5v.101h-1.5zm-.199.101h1.5v.102h-1.5zm-.097.102H39.5v.097h-1.398zm-.204.097h1.403v.102h-1.403zm-.199.102h1.403v.098h-1.403zm-.097.098h1.296v.101h-1.296Zm-.204.101H38.7v.102h-1.3zm-.199.102H38.5v.097h-1.3Zm-.199.097h1.3v.102H37Zm-.2.102h1.302v.098H36.8Zm-.1.098h1.198v.101H36.7Zm-.2.101h1.3v.102h-1.3zm-.2.102h1.302v.097H36.3Zm-.198.097h1.296v.102h-1.296zm-.204.102H37.2v.098h-1.3zm-.199.098H37v.101h-1.3Zm-.097.101H36.8v.102h-1.2zm-.204.102h1.204v.097h-1.204zm-.199.097h1.2v.102h-1.2zm-.199.102h1.2v.098H35Zm-.2.098h1.098v.101h-1.097zm-.198.101h1.097v.102h-1.097zm-.301.102h1.097v.097h-1.097zm-.2.097H35.2v.102h-1.097zm-.203.102h1v.098h-1zm-.199.098h1v.101h-1zm-.3.101h1v.102h-1zm-.2.102h1v.097h-1zm-.199.097h.898v.102H33Zm-.2.102h.9v.098h-.9zm-.3.098h1v.101h-1zm-.2.101h.9v.102h-.9zm-.198.102H33v.097h-.898zm-.301.097h.898v.102h-.898Zm-.301.102h.898v.098H31.5Zm-.3.098h.902v.101h-.903Zm-.2.101h.7v.102H31Zm-.3.102h.698v.097H30.7Zm-.302.097h.704v.102h-.704zm-.296.102h.699v.098h-.7zm-.301.098h.597v.101h-.597Zm-.301.101h.602v.102H29.5Zm-.3.102h.5v.097h-.5zm-.098.097h.199v.102h-.2zm0 0"/></clipPath><clipPath id="b"><path d="M57.652 4.016C45.801-4.926 25.797 1.55 12.586 18.437c.57-.039 1.277-.085 2-.144C26.44 6.387 42.367 2.645 52.402 10.219c11.375 8.578 10.864 28.445-1.144 44.37-6.176 8.192-14.196 13.731-22.074 16.024 9.226-2.156 18.953-8.617 26.378-18.465 13.2-17.5 14.133-39.046 2.09-48.132"/></clipPath><linearGradient id="c" x1="-.033" x2=".857" y1="0" y2="0" gradientTransform="rotate(.033 -65436.716 27051.604) scale(60.11621)" gradientUnits="userSpaceOnUse"><stop offset="0" stop-color="#b7c95e"/><stop offset=".25" stop-color="#b7c95e"/><stop offset=".313" stop-color="#b7c95e"/><stop offset=".344" stop-color="#b7c95e"/><stop offset=".352" stop-color="#b7c95e"/><stop offset=".355" stop-color="#b9ca5d"/><stop offset=".359" stop-color="#bbca5b"/><stop offset=".363" stop-color="#bdca59"/><stop offset=".367" stop-color="#bfcb58"/><stop offset=".371" stop-color="#c2cb56"/><stop offset=".375" stop-color="#c4cc53"/><stop offset=".379" stop-color="#c6cc52"/><stop offset=".383" stop-color="#c9cc50"/><stop offset=".387" stop-color="#cbcd4e"/><stop offset=".391" stop-color="#cece4d"/><stop offset=".395" stop-color="#d0cd4a"/><stop offset=".398" stop-color="#d2cd48"/><stop offset=".402" stop-color="#d4cd45"/><stop offset=".406" stop-color="#d7ce43"/><stop offset=".41" stop-color="#d9cd40"/><stop offset=".414" stop-color="#dacd3e"/><stop offset=".418" stop-color="#ddcd3b"/><stop offset=".422" stop-color="#dfcd38"/><stop offset=".426" stop-color="#e1cd35"/><stop offset=".43" stop-color="#e3cd32"/><stop offset=".434" stop-color="#e5cd2f"/><stop offset=".438" stop-color="#e7cd2c"/><stop offset=".441" stop-color="#e9cd29"/><stop offset=".445" stop-color="#ebcd27"/><stop offset=".449" stop-color="#edcd24"/><stop offset=".453" stop-color="#efcd22"/><stop offset=".457" stop-color="#f0cd20"/><stop offset=".461" stop-color="#f2cc1e"/><stop offset=".465" stop-color="#f2cc1d"/><stop offset=".469" stop-color="#f3cc1d"/><stop offset=".473" stop-color="#f3cc1c"/><stop offset=".477" stop-color="#f3cb1c"/><stop offset=".48" stop-color="#f3cb1b"/><stop offset=".484" stop-color="#f3cb1b"/><stop offset=".488" stop-color="#f3ca1b"/><stop offset=".492" stop-color="#f3ca1a"/><stop offset=".496" stop-color="#f4c91a"/><stop offset=".5" stop-color="#f4c91a"/><stop offset=".508" stop-color="#f4c91a"/><stop offset=".512" stop-color="#f5c819"/><stop offset=".516" stop-color="#f5c818"/><stop offset=".52" stop-color="#f5c818"/><stop offset=".523" stop-color="#f5c717"/><stop offset=".527" stop-color="#f6c717"/><stop offset=".531" stop-color="#f7c717"/><stop offset=".535" stop-color="#f7c717"/><stop offset=".539" stop-color="#f7c617"/><stop offset=".543" stop-color="#f7c616"/><stop offset=".547" stop-color="#f7c616"/><stop offset=".563" stop-color="#f7c616"/><stop offset=".578" stop-color="#f7c616"/><stop offset=".582" stop-color="#f6c516"/><stop offset=".586" stop-color="#f6c516"/><stop offset=".594" stop-color="#f6c516"/><stop offset=".598" stop-color="#f5c516"/><stop offset=".602" stop-color="#f5c516"/><stop offset=".609" stop-color="#f5c516"/><stop offset=".625" stop-color="#f5c516"/><stop offset=".641" stop-color="#f5c516"/><stop offset=".648" stop-color="#f5c516"/><stop offset=".652" stop-color="#f5c416"/><stop offset=".656" stop-color="#f5c417"/><stop offset=".66" stop-color="#f5c318"/><stop offset=".664" stop-color="#f4c318"/><stop offset=".668" stop-color="#f4c219"/><stop offset=".672" stop-color="#f4c21a"/><stop offset=".676" stop-color="#f4c21b"/><stop offset=".68" stop-color="#f4c21c"/><stop offset=".684" stop-color="#f4c21d"/><stop offset=".688" stop-color="#f4c11e"/><stop offset=".691" stop-color="#f4c11f"/><stop offset=".695" stop-color="#f4c020"/><stop offset=".699" stop-color="#f3c021"/><stop offset=".703" stop-color="#f3bf22"/><stop offset=".707" stop-color="#f3bf23"/><stop offset=".711" stop-color="#f2bf25"/><stop offset=".715" stop-color="#f2be26"/><stop offset=".719" stop-color="#f2be27"/><stop offset=".723" stop-color="#f2bd28"/><stop offset=".727" stop-color="#f2bd29"/><stop offset=".73" stop-color="#f2bd2b"/><stop offset=".734" stop-color="#f2bc2c"/><stop offset=".738" stop-color="#f2bc2e"/><stop offset=".742" stop-color="#f2bc2f"/><stop offset=".746" stop-color="#f3bc30"/><stop offset=".75" stop-color="#f3bb32"/><stop offset=".754" stop-color="#f3bb33"/><stop offset=".758" stop-color="#f3ba35"/><stop offset=".762" stop-color="#f3ba37"/><stop offset=".766" stop-color="#f3b938"/><stop offset=".77" stop-color="#f0ab47"/><stop offset=".773" stop-color="#ed9d55"/><stop offset=".777" stop-color="#ec8f5c"/><stop offset=".781" stop-color="#eb8163"/><stop offset=".785" stop-color="#ea736a"/><stop offset=".789" stop-color="#e96571"/><stop offset=".793" stop-color="#e95678"/><stop offset=".797" stop-color="#e8467d"/><stop offset=".801" stop-color="#e73485"/><stop offset=".805" stop-color="#e5218a"/><stop offset=".809" stop-color="#e51f8b"/><stop offset=".813" stop-color="#e51e8b"/><stop offset=".816" stop-color="#e4228a"/><stop offset=".82" stop-color="#e42588"/><stop offset=".824" stop-color="#e42987"/><stop offset=".828" stop-color="#e32d85"/><stop offset=".832" stop-color="#e33184"/><stop offset=".836" stop-color="#e33682"/><stop offset=".84" stop-color="#e43981"/><stop offset=".844" stop-color="#e53d7f"/><stop offset=".848" stop-color="#e5407e"/><stop offset=".852" stop-color="#e5437d"/><stop offset=".855" stop-color="#e5467b"/><stop offset=".859" stop-color="#e4497a"/><stop offset=".863" stop-color="#e44c79"/><stop offset=".867" stop-color="#e44f77"/><stop offset=".871" stop-color="#e45276"/><stop offset=".875" stop-color="#e45574"/><stop offset=".879" stop-color="#e35973"/><stop offset=".883" stop-color="#e35c72"/><stop offset=".887" stop-color="#e35f70"/><stop offset=".891" stop-color="#e4626f"/><stop offset=".895" stop-color="#e4656d"/><stop offset=".898" stop-color="#e4686c"/><stop offset=".902" stop-color="#e36a6a"/><stop offset=".906" stop-color="#e36c69"/><stop offset=".91" stop-color="#e36f67"/><stop offset=".914" stop-color="#e37166"/><stop offset=".918" stop-color="#e37465"/><stop offset=".922" stop-color="#e27664"/><stop offset=".926" stop-color="#e27962"/><stop offset=".93" stop-color="#e27b61"/><stop offset=".934" stop-color="#e27e60"/><stop offset=".938" stop-color="#e3805f"/><stop offset=".941" stop-color="#e3825d"/><stop offset=".945" stop-color="#e2845b"/><stop offset=".949" stop-color="#e2875a"/><stop offset=".953" stop-color="#e28959"/><stop offset=".957" stop-color="#e28c58"/><stop offset=".961" stop-color="#e28e56"/><stop offset=".965" stop-color="#e29055"/><stop offset=".969" stop-color="#e29354"/><stop offset=".973" stop-color="#e29552"/><stop offset=".977" stop-color="#e29751"/><stop offset=".98" stop-color="#e2994f"/><stop offset=".984" stop-color="#e29c4e"/><stop offset=".988" stop-color="#e29d4c"/><stop offset=".992" stop-color="#e19f4a"/><stop offset=".996" stop-color="#e1a249"/><stop offset="1" stop-color="#e2a448"/></linearGradient></defs><path fill="#2c5ba7" d="M42.733 59.104c.195.826.348 1.665.439 2.527.909-.233 1.759-.684 2.535-1.004.017-.01.04-.029.063-.033.212-.143.365-.263.49-.314 0-.868-.084-1.724-.257-2.569a2.228 2.228 0 0 0-.204.03c-.96.57-2.129.97-3.071 1.27 0 .03.005.06.005.092m-.53-.445c-.132-.62-.275-1.438-.593-1.986-.018-.012-.018-.034-.03-.045-.622.198-1.239.405-1.86.593-.406.137-.81.275-1.239.395-.222.65-.457 1.312-.667 1.968-.03.068-.035.131-.046.194.348-.05.684-.102 1.061-.177a30.41 30.41 0 0 0 2.865-.76c.177-.05.337-.125.509-.182m3.093-3.196a.346.346 0 0 0-.274-.01c-.028.004-.052.022-.074.028a.136.136 0 0 1-.08.03c-.593.233-1.198.42-1.707.602-.284.103-.593.195-.884.293l-.166.061c.012.172.035.326.051.485.143.526.292 1.045.424 1.57a30.41 30.41 0 0 0 2.67-1.05c.217-.103.417-.217.622-.34-.067-.253-.132-.504-.205-.75a8.409 8.409 0 0 0-.377-.92m25.93 29.88c-.069-.292-.143-.58-.16-.918-1.786-2.58-3.328-5.28-4.988-7.888-.547-.874-1.08-1.89-1.673-2.677-.56-.724-1.437-1.359-2.152-2.072-2.139-2.152-4.423-4.08-6.666-6.049 1.69-3.306 3.254-6.885 5.063-10.03.605-1.05 1.416-2.17 1.838-3.224.325-.805.456-1.838.69-2.75.709-2.827 1.3-5.457 2.06-8.27.446-.355.868-.72.84-1.53-.634-.08-.936-.492-1.376-.766-1.186.553-3.539.32-3.75-.765-.28-1.48 1.815-1.599 1.992-2.603-.536.012-1.512.485-1.758.073.497-.37 1.136-.603 1.605-.998-.937-.799-2.29-1.176-3.443-1.757-.153-1.21-.742-1.964-.69-3.368.142-.395.366-.6.48-1.13.069-.212.069-.314-.075-.662-.36-.01-.662.063-.862-.052-.404-.388.006-1.163-.314-1.684-.165.548-.21 1.222-.53 1.61a2.265 2.265 0 0 0-.309-.999c.08 1.147.446 2.015.697 2.991-.856-.143-1.17.251-1.906.228 0 .234-.087.39-.252.457-1.724.594-3.806.822-5.36 1.61-.69-.726-.873-1.98-1.519-2.757.286 1.163.95 2.072 1.298 3.373 2.264-.623 4.075-1.69 6.506-2.147.234-.263.794-.416 1.233-.233.052.423.36.93.142 1.382-.872-.126-.348-.018-.906.16-.19-.103-.23.152-.567.2-.381.13-.575.13-.935.36-.383.164-.314.2-.691.25-.33.153.058 0-.33.153-.366.063-.412.103-.772.228-.548.161-.347.103-.815.234-.72.194-.286.075-1.039.275-1.09.234-.11-.03-1.137.285-.479-.65-.94-1.3-1.53-1.843-.245.216-.318-.37-.387-.907-.634-.218-.828-.862-.844-1.69-.212-.04-.532.48-.914.531-.594-.24-1.027-1.033-1.838-1.142-.662-.097-1.695.25-2.523.382-.645.092-1.271.114-1.786.258-4.024.382-17.889 2.637-20.434 3.03 2.666-.234 17.689-2.038 21.004-2.78 1.473-.119 2.997-.54 4.354-.508.132.19.259.4.22.76-2.08.702-4.248.906-6.422 1.228-1.263.187-5.234 1.003-5.982 1.147-3.215.644-6.86 1.312-10.411 1.917-1.033.176-2.111.347-3.14.536-6.136 1.12-12.636 1.593-19.063.844-.514-.078-.714.035-.816.126a1.13 1.13 0 0 1 .485-.656c.793-.377 1.753-.742 2.694-.925h.456c.19-.165-.285-.069-.456-.079-.793-.023-2.107.016-2.677 0-.155.205-.434.501-.49.845a13.167 13.167 0 0 0-.195.92v.078c.263 1.267.446 2.604 1.141 3.448 2.233.03 4.27.656 6.365.68 1.695.03 3.396-.23 5.056-.303 1.364-.063 2.735-.04 4.133-.155 2.432-.194 4.914-.82 7.351-1.22 7.5-1.229 14.891-2.576 21.9-4.065.68-.709 1.183-1.742 2.677-1.22.556 1.18 1.006 2.47 1.461 3.748 1.126.343 1.958 1.233 3.368.691-.628-2.899 2.06-3.15 3.824-4.058-.096.285.063.395.08.611 1.576.03 1.37 1.85 2.061 2.756-1.524-.554-3.076.063-4.052.61-.371.205-1.142.617-1.221.926-.167.6.25 1.861.377 2.757.135.97.438 2.037.393 2.83-.073.948-.668 1.964-.931 2.757a43.426 43.426 0 0 0-.839 2.911c-2.06 1.867-3.806 4.053-6.05 5.748-.091-.32-.13-.69-.205-1.033a4.107 4.107 0 0 1-.886.617.246.246 0 0 0-.05.03c-.064.04-.132.066-.2.101.074.171.12.36.16.547.165.37.296.742.399 1.13a.725.725 0 0 0 .137-.09c.16-.143.32-.286.48-.434.12-.182.227-.365.394-.49.17.438-.018.69-.28.918a4.315 4.315 0 0 1-.611.594c.245 1.072.336 2.191.314 3.242-2.945 2.186-7.072 2.944-10.662 3.162-1.055.057-2.083-.823-2.911-1.398a60.858 60.858 0 0 1-2.084-1.53c-.006 0-.016-.018-.029-.03-.918-.657-1.75-1.472-1.939-2.665 0-.017-.006-.029-.012-.045.006.006.006.006.012 0a3.784 3.784 0 0 1 .044-1.257c.064.326.092.674.121 1.033.069.173.165.344.216.572.293.947 1.114 1.438 1.856 2.003 1.114.84 2.231 1.677 3.425 2.396.456.263.788.464 1.29.44v-.01s.005 0 .005.006c.321-.943.651-1.936.976-2.883-.205.017-.405.051-.6.063-1.358.073-2.778.662-3.868-.258-.332-.165-.57-.41-.658-.76.514.036.772.327 1.056.584.171.058.332.102.464.131.114.034.251.045.37.057.783 0 1.506-.05 2.232-.114.03-.017.057-.017.09-.017.378-.069.731-.114 1.075-.16.204-.622.416-1.243.632-1.87.024-.07.035-.128.063-.18-.49.11-.97.218-1.45.322-1.431.38-2.863.74-4.31 1.083-.29.058-.54.058-.792.005a.085.085 0 0 1-.04.018c-.005-.012-.017-.018-.017-.023-.336-.085-.628-.28-.874-.657a2.827 2.827 0 0 1-.147-.416c-.303-.503-.458-1.113-.263-1.895-.059 1.216.776 2.386 1.58 2.57.337.004.72-.133 1-.196.205-.045.41-.096.611-.149.01-.004.016-.004.022-.004 0-.006.012-.006.023-.006a127.297 127.297 0 0 0 4.396-1.147c2.014-.565 4.024-1.154 5.992-1.885.223-.085.445-.175.673-.263.161-.067.218-.085.285-.107.309-.13.611-.274.914-.417.011-.01.017-.01.023-.017l.587-.314c.143-.092.303-.176.434-.286.069-.05.12-.09.161-.114.03-.473 0-.37-.15-.764-.272.073-.684.331-.952.383-.862.188-.646.165-1.364.263-.189-.772-.639-1.296-.827-2.06 1.037-.625 2.402-.92 2.448-2.536-1.376-.44-2.089-1.044-3.356-1.592a16.127 16.127 0 0 1-1.08-1.787c-.518-.833-.365-.456-1.084-1.364-.56-.714-1.267-1.427-1.86-1.718-.542-.263-1.41-.548-2.123-.736-.709-.189-1.417-.53-2.14-.537-.492-.01-1.132.195-1.685.307-1.597.322-2.066.544-3.07 1.302-.439.343-1.033.726-1.3 1.074-.116.153-.436.526-.538.685-.217.382-.423.525-.605.867-.332.622-.326.697-.542 1.125-.52 1.06-1 2.162-1.204 3.482.029 3.721 2.174 5.2 2.887 8.235.05-.41-.228-.89 0-1.227.257.388.16 1.125.24 1.69.57.65 1.553.896 1.843 1.833-.73-.132-1.312-1.228-1.877-1.269.907.772 1.724 1.616 2.718 2.113.141.073.358 0 .53.08.833.382 1.461 1.387 2.214 1.603.347.108.434-.045.697.332-1.736.297-2.243-2.03-3.276-1.553-.783.353-.96.24-1.862.383-.143.72.77 1.775.902 2.46.599.855.023 1.277.536 2.214.538.485.862.61 1.325.913.263 1.815.085 3.74.684 5.52.674 1.32 2.227 2.197 3.3 3.361 1.17 1.28 2.761 2.638 3.664 3.533 3.156 3.06 6.18 5.617 9.435 8.57.822.745 2.79 2.15 3.207 3.07.365.787.503 1.854.76 2.824.263.96.685 1.998.77 2.836.177 1.52-.387 2.968 0 4.596.063.256.23.54.434.84 6.261-4.043 12.186-9.299 17.294-15.664a48.76 48.76 0 0 0 1.096-1.416c-.422-.404-.907-.736-1.58-.838M37.45 60.627c-.012.024-.012.052-.03.08-.227.673-.45 1.348-.683 2.026-.063.194-.098.343-.138.428a28.301 28.301 0 0 0 4.298-.662c.269-.063.52-.147.789-.222.347-.149.758-.332 1.037-.438-.022-.22-.03-.44-.04-.52a19.08 19.08 0 0 0-.376-2.176c-.09.035-.205.07-.297.098a26.34 26.34 0 0 1-2.455.68c-.662.175-1.318.33-1.952.38-.057.11-.096.218-.153.326m12.933-34.103c-.125-.81.445-.906.913-1.136.16-.01.321-.017.497-.029.394.051.594.52.816.715.04-.383.246-.59.434-.817.297-.03.611-.069.914-.102.467.073.434.656.799.838-.059-.958 1.335-1.188 1.911-.616-.006-.27-.108-.439-.153-.69l-6.65.69c-.377-.01-.713 0-.856.08.827-.012.946.69 1.375 1.067m8.344-1.786c.418-.01.829.016 1.263.108.057.016.125.016.165.022.16.07.177.298.416.287.263-.183.708-.17 1.147-.155.326.166.452.532.697.76.165-.635 1.079-.806 1.603-.458.355.234.167.623.538.772-.086-.538.245-.646.57-.76.292.045.343.131.475.263.022.03.147.348.147.348.15.49.27.987.446 1.473.126.347.165.77.279.97h-.006v.383c-.251.131-.576.188-.919.233.098.285.326.434.383.765-.617.48-1.455-.258-2.066 0 .023.536.49.628.616 1.074-.404.73-1.244.096-1.912.073-.314-.016-.564.206-.85.15-.286-.06-.541-.583-.765-.304-.068.285.839.44.69.84 1.17-.064 1.958.981 3.06 1.073.286.022.64-.126.92-.075.855.142 1.66 1.597 1.745 3.824 0-.508.4-3.47.4-3.984.526-.205.884-.6 1.388-.84.067-.918.124-1.865.216-2.75-.85-.148-1.763-.268-2.62-.423-.229-.746-.604-2.767-1.466-3.168.011-.005.021-.005.033-.01-.707-.396-1.866-.418-2.637-.457-.54-.03-1.084-.034-1.62-.024-.246.006-.749.12-.983.036-.53-.205-.856-.32-1.42-.252-.178.097-.234.16-.245.2-.12.126-.275.28-.063.342.04-.188.204-.245.375-.336m43.207 94.238c-.343.31-.434.493-.622.754-.27.246-.27.275-.537.548-.467.497-.331.497-.935.965-.292.292-.463.4-.971.832-.576.538-.965.744-1.69 1.326-.69.56-1.215 1.05-1.991 1.69-.251.19-1.045.684-2.494 1.426-.6.372-1.353.747-2.176.564.697-.66 1.365-1.55 2.374-2.378 1.44-1.165 3.773-1.53 3.677-3.596-.051-1.033-.428-1.958-.811-2.889.251-.16.526-.326.713-.473.445-.336 1.023-.623 1.514-.874.69-.348 1.402-.41 2.18-.252.764.155 1.215.892 1.569 1.548.16.302.279.6.2.81m-24.828 4.726c-1.88-.657-4.179-1.65-6.884-1.062-.029.058-.074.074-.074.15.165-.195 2.06.011 1.53.08-1.485.084-3.146.153-4.293.53 2.174-2.106 6.964-1.638 9.503-.228.41.204.474.234.817.444.263.56-.069.263-.6.086m-12.038 31.708c-.084.717.069 1.186-.752 1.06-1.32-.21-1.347-1.233-1.885-2.02a15.912 15.912 0 0 1-.953-1.542c.303-.776.48-.48 1.24-.633.712-.16 1.523-.485 1.889-.485.37 0 .194-.263.434 1.204.21 1.228.114 1.622.029 2.414m-17.913 9.67c-.564.598-1.512.576-3.686.48-2.169-.103-2.031-.179-3.27-.72-1.04-.435-1.377-.28-1.143-3.008.251-2.893 2.506-2.363 4.96-1.58 2.49.775 2.507 1.032 2.62 1.551.126.526.617 2.072.617 2.072s.28.81-.098 1.204m55.246-46.186a3.62 3.62 0 0 0-.446-1.285c-.399-.587-.982-1.066-1.677-1.243-1.656-.446-3.328.644-4.584 1.695-.251-.595-.503-1.21-.668-1.856l-1.221-2.596c-.462-1.13-1.364-1.805-1.603-3.146-2.473-3.63-3.637-8.56-7.365-10.953-.758-.94-1.551-1.86-2.51-2.6-1.005-1.72-3.008-2.365-3.608-4.37-.137-.444 0-1.067-.227-1.528-.15-.303-.57-.405-1.006-.77-.33-.287-.628-.71-.901-.914-.27-.194-.56-.365-.839-.537-6.29 6.712-13.321 11.97-20.502 15.576.063.092.136.19.2.274.645.953 1.511 1.787 1.655 2.986.058.53.314 1 .382 1.506.04.424.217.754.383 1.131.193.456.154.93.193 1.41.03.4.2.725.297 1.102.04.175-.057.36 0 .524.035.114.16.154.212.257.114.274.058.702.131 1.004.108.542.285 1.09.246 1.656-.073 1.164.175 2.368.267 3.521a44.45 44.45 0 0 1 .155 5.234 52.254 52.254 0 0 1-.183 2.7c-.05.456-.108.914-.16 1.364-.044.286-.022 1.136-.205 1.337-.976 1.066-1.324 2.476-2.227 3.527-.672.782-1.7 1.398-2.528 2.06-.49.405-.987.815-1.484 1.222-.376.314-.873.57-1.153.993-.205.295-.325.684-.491 1.026-.376.805-.794 1.598-1.204 2.404-.292.553-.491 1.14-.76 1.7-.25.491-.587.896-.89 1.353-.365.537-.467 1.181-.958 1.662a12.025 12.025 0 0 0-.965 1.118c-.713.92-1.015 1.272-1.665 2.232-.646.97-1.24 2.112-1.993 2.917-.668.707-1.61 1.278-2.369 1.905-.804.658-1.547 1.102-2.369 1.94-.514 1.04-.394 2.25-.622 3.351-.096.468-.383.81-.383 1.308 0 .542.269 1.158.383 1.746.216 1.12-.051 2.67.884 3.492 1.096.954 2.9 1.428 4.281 1.428 2.306-.21 4.042-.376 6.405-.553.61-.274.461-1.478.438-1.679-.028-.36-.228-.565.017-.925 3.113-3.828 5.64-8.24 9.494-11.324.536.766 1.204 1.467 1.83 2.294.572.72 1.137 1.833 1.844 2.294.833.556 1.742 1.006 2.905 1.07 1.279-.679.658-6.029 1.919-8.117.935-.177 1.644-.61 2.533-.84 5.703-5.735 12.106-11.58 18.221-17.15.884-.805 1.802-1.833 2.681-2.376 1.622-.993 3.557-1.34 5.207-2.22 2.693-3.173 7.094-8.24 6.603-9.337"/><path fill="#b6ca5f" d="M13.79 39.737c-3.345 5.327-5.953 10.817-7.836 16.278a71.49 71.49 0 0 1 9.099-15.958c.084-.126.182-.24.273-.36-.513.018-1.027.03-1.534.04"/><g clip-path="url(#a)" transform="translate(0 5.896) scale(1.46117)"><g clip-path="url(#b)"><path fill="url(#c)" d="m12.586-.02-.04 70.633 53.556.032.035-70.633zm0 0"/></g></g><path fill="#00237d" d="M195.594 96.45c2.302 24.233 3.024 48.31 0 72.01h43.594l.98-11.026c-6.476 1.6-13.85 2.706-22.451 2.183-3.365-21.055-1.267-42.112-.035-63.167zm-25.725-.437-32.551.437c2.8 23.493 2.678 47.646 1.002 72.01h22.051c-2.023-11.403-2.701-21.402-1.804-33.004 14.065 4.277 32.595-2.173 32.595-19.72 0-17.55-8.451-18.49-21.294-19.723zm-9.497 8.041c9.851.673 11.39 5.934 11.39 13.59 0 7.658-4.2 12.96-11.388 13.591zM108.44 96.46h22.057c-2.351 24.289-1.918 48.23 0 71.985H108.44c2.352-24.582 1.918-48.47 0-71.985z"/><g fill="#486aae"><path d="M139.628 70.398h-6.954v17.725h-10.098V70.398h-7.184V63.02h24.235zm6.985-7.377h10.534l9.74 25.102h-9.817l-5.167-14.96-5.103 14.96H137.1zm42.193 7.377h-6.95v17.725h-10.1V70.398h-7.185V63.02h24.235zm6.99-7.377h10.53l9.74 25.102h-9.815l-5.166-14.96-5.105 14.96h-9.699z"/><path fill-rule="evenodd" d="M201.442 16.917c-.904-1.78-2.096-3.485-3.579-5.085-3.332-3.595-8.032-6.588-13.596-8.652C178.66 1.1 172.261 0 165.76 0c-6.501 0-12.9 1.1-18.505 3.18-5.566 2.064-10.267 5.056-13.6 8.652-1.48 1.6-2.677 3.307-3.581 5.088 7.243-1.752 19.631-4.064 31.134-4.308 1.11-.024 1.874.33 2.377.97.612.775.565 3.543.552 4.781l-.328 32.001a58.907 58.907 0 0 0 3.91.003l-.327-32.005c-.017-1.237-.064-4.005.55-4.782.504-.637 1.266-.992 2.375-.968 11.499.242 23.883 2.555 31.126 4.305" clip-rule="evenodd"/><path fill-rule="evenodd" d="M202.989 21.079c-10.601-2.397-17.68-2.84-24.664-3.228-6.088-.338-6.168 1.836-5.56 5.99l.146.938c2.043 12.097 4.586 22.504 5.023 24.27 14.842-3.391 25.548-12.798 25.548-23.848 0-1.392-.169-2.77-.493-4.122m-44.229 2.763c.608-4.155.53-6.329-5.557-5.99-6.987.387-14.068.83-24.673 3.228a17.65 17.65 0 0 0-.494 4.12c0 4.776 1.944 9.397 5.62 13.369 3.332 3.594 8.033 6.587 13.599 8.653a48.827 48.827 0 0 0 6.33 1.846c.412-1.655 3.012-12.28 5.077-24.593.038-.234.074-.453.097-.633" clip-rule="evenodd"/></g></svg>